<?xml version="1.0" standalone="no"?>
<!DOCTYPE svg PUBLIC "-//W3C//DTD SVG 20010904//EN"
 "http://www.w3.org/TR/2001/REC-SVG-20010904/DTD/svg10.dtd">
<svg version="1.0" xmlns="http://www.w3.org/2000/svg"
 width="1024.000000pt" height="1024.000000pt" viewBox="0 0 1024.000000 1024.000000"
 preserveAspectRatio="xMidYMid meet">

<g transform="translate(0.000000,1024.000000) scale(0.100000,-0.100000)"
fill="#000000" stroke="none">
<path d="M0 5120 l0 -5120 5120 0 5120 0 0 5120 0 5120 -5120 0 -5120 0 0
-5120z m5117 3815 c89 -17 216 -74 296 -133 128 -95 228 -252 273 -429 13 -52
24 -106 24 -120 0 -19 8 -27 38 -38 79 -31 244 -126 410 -235 l72 -49 0 54 c0
51 2 56 48 99 84 80 123 106 156 106 51 0 105 -19 130 -47 22 -24 82 -191 116
-323 7 -25 37 -93 67 -152 54 -106 56 -108 152 -181 123 -94 141 -104 152 -86
5 8 9 19 9 26 0 6 27 68 60 138 33 70 60 129 60 132 0 16 217 446 255 504 49
76 71 90 124 78 45 -10 170 -96 184 -127 14 -30 -48 -289 -135 -562 -99 -311
-168 -535 -168 -541 0 -4 17 -16 38 -27 127 -66 530 -389 600 -480 l27 -35 0
-1026 1 -1026 63 -32 c113 -57 141 -98 141 -205 0 -45 -6 -72 -20 -95 -23 -38
-113 -93 -153 -93 l-27 0 0 -512 1 -513 -83 -46 c-46 -26 -142 -84 -215 -130
-72 -46 -193 -122 -268 -169 -135 -84 -174 -109 -555 -350 -502 -317 -613
-386 -1080 -670 -69 -41 -210 -124 -315 -184 -104 -60 -229 -132 -276 -162
-121 -74 -344 -184 -355 -175 -5 4 -36 19 -69 33 -51 22 -171 89 -485 273 -30
18 -88 51 -129 75 -41 23 -104 61 -140 84 -36 24 -203 125 -370 225 -167 100
-336 204 -375 230 -39 26 -111 72 -161 101 -140 82 -391 238 -485 300 -47 31
-202 128 -345 215 -365 221 -464 281 -514 312 l-44 27 9 940 c5 518 7 1297 5
1731 -4 787 -4 790 17 831 34 67 66 98 179 175 59 40 121 86 137 101 28 27 29
31 16 52 -17 25 -125 162 -357 452 -89 111 -169 217 -178 235 -24 46 -17 144
14 187 23 32 214 183 307 242 27 17 61 30 78 30 l31 -1 -39 -22 c-163 -93
-311 -209 -342 -269 -21 -41 -17 -108 9 -155 12 -23 67 -97 122 -164 55 -67
181 -222 281 -343 99 -122 186 -232 193 -245 14 -26 9 -34 -34 -48 -39 -13
-259 -164 -308 -211 l-37 -36 -2 -1031 c-2 -566 -3 -1343 -3 -1725 l0 -695 86
-50 c165 -97 234 -139 289 -176 30 -21 132 -81 225 -134 94 -54 234 -138 312
-189 77 -50 189 -120 249 -156 59 -36 153 -94 208 -129 188 -119 261 -164 366
-226 58 -34 143 -86 190 -115 47 -29 141 -88 210 -130 69 -42 163 -100 210
-130 47 -29 139 -84 205 -122 66 -39 125 -73 130 -78 24 -20 264 -152 304
-167 l43 -16 97 47 c102 50 529 298 821 476 96 59 276 168 400 242 218 130
457 279 685 426 165 106 330 209 420 262 44 26 136 85 205 132 69 47 168 109
220 138 52 29 118 67 147 84 l52 31 6 493 c3 272 7 498 8 504 1 6 -28 29 -66
52 -37 23 -93 65 -125 93 -66 58 -217 159 -278 186 l-42 19 -188 -70 c-177
-66 -278 -98 -709 -224 -554 -162 -907 -246 -1190 -284 -130 -17 -813 -19
-990 -3 -149 13 -556 82 -740 124 -82 19 -195 44 -250 55 -256 51 -858 232
-1275 383 -100 36 -195 80 -204 96 -14 22 108 29 139 7 30 -20 429 -163 658
-236 279 -88 341 -104 897 -235 307 -73 1008 -162 986 -126 -4 6 -38 32 -76
57 -106 69 -216 196 -260 299 -11 25 -35 61 -53 78 -51 48 -79 111 -85 190 -4
62 -2 73 31 140 20 40 59 100 86 135 l51 62 0 1064 0 1064 -34 34 c-19 19 -38
48 -42 64 -4 16 -22 47 -40 70 -47 57 -64 104 -64 174 0 68 20 116 69 169 19
21 31 44 31 61 0 47 29 113 66 151 l36 37 -20 28 c-11 16 -32 48 -46 71 l-26
42 -42 -27 c-23 -15 -108 -70 -189 -122 -183 -118 -301 -191 -499 -309 -133
-79 -452 -274 -558 -340 l-32 -20 -70 82 c-39 45 -70 85 -70 90 0 4 8 7 18 7
30 1 206 105 475 281 125 81 278 171 528 309 47 26 105 60 129 75 74 47 203
105 232 105 28 0 28 0 28 65 0 80 -4 81 -109 23 -233 -127 -652 -370 -756
-437 -66 -43 -174 -110 -240 -149 -66 -39 -172 -105 -235 -147 -63 -41 -117
-75 -120 -74 -5 0 -84 91 -155 177 l-30 36 45 -32 c25 -18 57 -42 71 -53 24
-19 30 -20 65 -9 22 7 68 31 104 53 36 22 126 77 200 122 74 45 187 115 250
156 129 84 281 174 445 262 61 33 146 81 190 107 123 73 187 105 225 110 l34
5 13 75 c36 221 131 397 276 511 157 124 394 176 614 134z m571 -87 c3 -16
-43 -78 -59 -78 -16 0 -9 41 12 71 22 31 42 34 47 7z m-1406 -28 c25 -25 28
-33 18 -45 -20 -24 -48 -17 -65 15 -33 63 -5 82 47 30z m1469 -152 c-35 -31
-51 -35 -51 -13 0 19 74 69 79 53 2 -6 -10 -24 -28 -40z m-1578 -16 c18 -16
23 -32 9 -32 -4 0 -23 14 -42 30 -32 28 -33 30 -10 24 14 -3 33 -13 43 -22z
m1687 -58 c0 -22 -53 -83 -72 -84 -20 -1 -5 41 23 64 29 25 49 33 49 20z
m-1749 -35 c25 -18 40 -49 23 -49 -19 0 -64 37 -64 52 0 23 5 23 41 -3z m-70
-154 c47 -24 69 -48 56 -61 -7 -7 -115 44 -123 57 -5 9 3 29 12 29 3 0 27 -11
55 -25z m1897 -13 c4 -24 -28 -42 -73 -42 -52 0 -41 35 18 57 41 15 51 12 55
-15z m-2193 -97 c30 -29 32 -66 6 -89 -26 -24 -54 -13 -77 29 -16 30 -16 37
-4 59 17 33 44 33 75 1z m2504 -1 c18 -23 19 -29 6 -53 -20 -39 -41 -54 -65
-46 -41 13 -43 82 -3 113 25 18 39 15 62 -14z m-2735 -123 c30 -32 31 -58 3
-75 -16 -9 -23 -5 -48 24 -32 38 -35 50 -17 68 18 18 32 15 62 -17z m-190
-132 c30 -35 32 -51 10 -73 -21 -22 -29 -20 -53 11 -59 73 -17 133 43 62z
m-190 -128 c18 -20 17 -49 -3 -81 -8 -12 -16 -9 -48 16 -45 37 -53 66 -22 88
24 17 42 11 73 -23z m-874 -87 c255 -348 366 -490 546 -695 131 -150 214 -261
214 -286 0 -11 -13 -32 -30 -46 -34 -31 -41 -22 -10 11 l21 22 -62 82 c-34 46
-96 123 -138 171 -42 49 -94 113 -116 142 -22 29 -85 113 -141 186 -56 74
-160 210 -232 304 -118 152 -164 225 -144 225 4 0 45 -52 92 -116z m-122 34
c3 -17 -97 -103 -204 -176 -34 -22 -64 -48 -67 -55 -6 -15 10 -36 192 -257
233 -282 410 -498 475 -579 38 -47 75 -90 82 -94 19 -11 46 -65 39 -77 -13
-21 -115 -2 -115 20 0 13 -198 280 -207 280 -8 0 60 -96 78 -110 9 -8 30 -50
25 -50 -3 0 -48 53 -101 118 -52 64 -111 136 -131 160 -20 23 -35 44 -33 47 3
2 27 -22 54 -55 28 -32 56 -61 63 -64 7 -3 -15 25 -49 64 -34 38 -66 67 -70
64 -4 -2 -33 26 -63 63 -30 38 -100 124 -155 192 -94 115 -118 153 -89 135 7
-4 8 -3 4 5 -4 6 -11 9 -16 6 -5 -3 -21 19 -36 49 l-28 55 29 41 c36 52 81 90
190 165 47 32 88 62 91 67 9 14 38 5 42 -14z m42 -68 c-9 -16 -101 -87 -172
-133 -28 -18 -37 -37 -17 -37 5 0 45 22 87 49 135 87 142 91 142 78 0 -7 -14
-23 -32 -37 -17 -14 -36 -30 -42 -35 -6 -6 -38 -26 -71 -45 -33 -18 -63 -38
-67 -44 -8 -11 -57 40 -57 59 0 10 91 78 143 107 17 9 42 28 55 42 26 28 47
26 31 -4z m90 -99 c0 -15 -220 -141 -246 -141 -23 0 -16 28 9 35 54 17 155 73
182 102 22 23 33 29 42 21 7 -6 13 -13 13 -17z m12 -71 c-24 -11 -56 -29 -71
-39 -15 -11 -58 -36 -94 -55 -59 -30 -68 -33 -76 -18 -8 13 3 22 63 48 40 17
90 43 112 58 24 16 52 26 74 26 l35 0 -43 -20z m53 -31 c-14 -4 -51 -28 -82
-53 -30 -25 -59 -46 -64 -46 -12 0 -11 -27 1 -35 6 -4 32 11 58 33 56 47 84
62 111 62 30 0 26 -18 -6 -26 -15 -4 -56 -28 -91 -54 -42 -31 -71 -46 -84 -42
-14 3 -21 -2 -25 -17 -6 -22 -6 -22 -35 6 -29 28 -59 71 -41 60 5 -3 24 3 41
14 18 10 39 19 47 19 8 0 15 4 15 8 0 5 18 17 40 28 22 10 40 22 40 26 0 3 16
12 35 18 19 6 35 16 35 22 0 6 7 5 16 -3 15 -12 13 -14 -11 -20z m40 -106
c-16 -9 -57 -37 -91 -64 -78 -62 -112 -78 -124 -59 -6 10 -1 17 18 26 15 6 60
34 101 63 44 30 85 51 100 51 l26 -1 -30 -16z m67 -30 c-7 -3 -25 -15 -40 -27
-93 -74 -182 -122 -208 -112 -21 8 -17 26 6 26 12 0 35 7 53 17 48 24 167 115
167 127 0 6 8 2 18 -8 13 -14 14 -20 4 -23z m46 -50 c-12 -15 -140 -115 -181
-142 -12 -8 3 10 33 39 53 52 48 52 -16 0 -17 -14 -41 -33 -53 -43 -21 -17
-24 -17 -48 -1 l-26 17 37 12 c20 7 60 29 89 48 66 46 160 94 170 89 4 -2 2
-11 -5 -19z m16 -48 c-7 -18 -147 -132 -180 -147 -26 -12 -59 -4 -49 12 3 5
13 10 21 10 16 0 124 69 124 80 0 8 71 60 82 60 4 0 5 -7 2 -15z m56 -28 c0
-7 -9 -18 -20 -25 -12 -7 -18 -17 -15 -22 3 -5 -10 -20 -28 -32 -19 -13 -60
-43 -92 -67 -55 -41 -59 -43 -72 -26 -15 21 -17 35 -4 35 22 0 133 76 161 111
30 37 70 53 70 26z m60 -77 c0 -11 -237 -163 -250 -158 -21 7 43 60 160 131
69 42 90 49 90 27z m30 -39 c0 -11 -32 -34 -157 -115 -45 -29 -85 -51 -88 -48
-16 17 4 36 83 78 48 26 100 58 115 71 30 24 47 29 47 14z m927 -21 c15 -12
39 -37 53 -57 24 -35 25 -40 25 -207 0 -94 2 -258 3 -364 l2 -193 61 -65 c64
-68 103 -142 134 -249 9 -33 24 -71 33 -85 12 -18 17 -55 20 -132 4 -103 3
-110 -24 -160 l-29 -53 -3 -423 -3 -423 33 -45 c31 -44 32 -49 32 -142 l0 -97
-58 -115 c-64 -128 -107 -179 -181 -218 -69 -37 -186 -38 -259 -3 -97 47 -156
122 -271 339 -14 28 -19 58 -20 123 0 79 2 89 30 129 l30 43 7 401 7 401 -29
42 c-39 57 -50 102 -50 215 0 89 2 99 25 127 14 16 34 54 44 84 11 30 26 66
34 79 9 12 20 42 26 65 11 41 22 53 124 135 l28 23 0 315 c-1 173 -2 335 -3
360 -2 61 17 114 55 151 25 26 36 30 64 26 18 -3 45 -15 60 -27z m-896 -26
c12 -15 11 -18 -5 -28 -46 -26 -175 -148 -178 -167 -3 -19 -6 -17 -35 18 -20
26 -26 40 -17 40 8 0 14 -5 14 -11 0 -5 19 8 43 30 23 22 66 58 95 79 28 22
52 43 52 47 0 13 17 9 31 -8z m88 -104 c1 -3 -22 -18 -50 -35 -28 -16 -78 -55
-110 -86 -57 -55 -70 -58 -81 -23 -4 12 115 105 173 134 21 11 39 25 39 30 0
15 -16 12 -30 -5 -7 -8 -16 -15 -21 -15 -5 0 -39 -19 -76 -43 -100 -64 -100
-64 -85 -45 7 9 51 41 97 72 46 31 87 61 91 67 4 7 15 1 30 -17 13 -16 23 -31
23 -34z m23 -75 c-15 -7 -48 -29 -75 -49 -26 -20 -53 -36 -59 -36 -18 0 59 75
98 96 19 10 34 23 34 29 0 5 7 1 15 -9 14 -18 13 -21 -13 -31z m8 -33 c-49
-33 -143 -129 -138 -142 3 -9 26 7 66 45 78 73 98 87 118 83 11 -2 2 -13 -28
-35 -23 -18 -67 -52 -95 -76 -47 -38 -103 -62 -88 -36 4 5 -1 9 -9 9 -9 0 -16
5 -16 12 0 16 49 78 62 78 6 0 26 11 44 25 30 23 91 54 104 54 3 0 -6 -8 -20
-17z m64 -74 c-16 -13 -59 -51 -96 -85 -62 -58 -88 -75 -88 -55 0 15 17 31
104 106 60 51 93 73 99 67 7 -7 1 -18 -19 -33z m1196 16 c8 -14 22 -30 32 -35
23 -12 23 -26 0 -34 -11 -3 -24 -17 -30 -30 -12 -25 -42 -35 -42 -14 0 6 -14
24 -31 40 l-31 29 26 12 c15 6 29 22 32 35 8 30 27 29 44 -3z m-1444 -19 c-15
-14 -32 -25 -39 -25 -13 1 43 50 57 50 5 0 -3 -11 -18 -25z m309 -15 c7 -11
-147 -169 -183 -189 -19 -10 -23 -9 -29 5 -4 11 1 20 13 27 20 12 167 147 172
159 5 11 20 10 27 -2z m-515 -220 c27 -38 19 -49 -54 -84 -60 -28 -84 -52 -88
-87 -2 -13 -7 -27 -12 -30 -14 -11 -24 -87 -16 -131 6 -30 18 -51 39 -69 27
-22 30 -30 23 -50 -19 -49 -21 -155 -14 -609 6 -377 10 -469 22 -487 13 -20
11 -24 -22 -61 -41 -45 -53 -85 -44 -147 7 -43 26 -68 69 -90 16 -8 22 -20 22
-43 0 -41 74 -129 141 -168 59 -35 147 -37 216 -7 67 30 135 102 150 159 10
37 19 48 45 59 43 18 65 65 67 141 1 60 -1 65 -37 102 l-39 40 7 463 c3 255 2
505 -2 556 -9 101 -8 113 13 113 18 0 43 39 58 90 15 52 29 55 40 8 8 -30 4
-50 -18 -112 l-27 -74 3 -509 4 -508 32 -65 c50 -100 43 -206 -18 -286 -16
-22 -46 -63 -66 -92 -54 -79 -92 -112 -164 -146 -56 -27 -76 -31 -145 -31 -70
0 -86 4 -128 28 -68 40 -156 131 -165 170 -6 30 -7 28 -13 -23 -4 -30 -7 -83
-8 -116 -1 -69 -19 -96 -49 -77 -14 8 -18 35 -23 159 -4 82 -10 197 -14 256
-5 74 -4 121 4 155 9 36 12 194 9 618 -2 313 -3 622 -2 686 l1 117 -39 -18
c-22 -10 -42 -21 -46 -26 -4 -5 -5 -238 -2 -519 3 -280 3 -707 2 -947 l-4
-438 -28 0 c-28 0 -28 1 -32 68 -1 37 -2 471 0 966 l3 898 32 29 c18 16 69 48
115 71 45 24 101 62 124 85 23 24 45 43 49 43 4 0 17 -14 29 -30z m1680 -34
c5 -13 13 -25 19 -27 5 -2 -6 -19 -24 -38 l-33 -33 -17 26 c-16 24 -16 28 -1
61 20 41 43 45 56 11z m-1182 -38 c34 -60 91 -135 205 -268 72 -85 97 -136 62
-128 -27 6 -202 207 -235 271 -18 34 -46 77 -62 95 -30 34 -32 41 -22 66 10
26 21 19 52 -36z m-148 -91 c60 -14 76 -40 29 -45 -21 -2 -27 1 -25 15 1 14
-5 17 -29 15 -16 -2 -32 -7 -35 -11 -3 -5 -12 -11 -20 -14 -11 -4 -10 -6 5 -8
11 -1 -7 -5 -40 -9 -69 -8 -256 -2 -268 9 -15 14 29 54 69 62 51 11 243 2 314
-14z m1350 -119 c0 -13 -43 -58 -56 -58 -7 0 -20 14 -28 32 -16 31 -16 32 11
54 l28 22 23 -21 c12 -11 22 -24 22 -29z m-1444 -28 c1 -8 2 -20 3 -27 0 -7
16 -17 34 -22 l32 -9 -33 -1 c-18 -1 -41 5 -52 11 -15 10 -22 10 -32 0 -13
-13 -187 -15 -243 -3 -30 6 -42 28 -31 57 8 22 320 16 322 -6z m179 0 c27 -30
13 -50 -37 -49 -24 0 -37 3 -30 6 6 2 12 12 12 22 0 17 18 41 30 41 4 0 15 -9
25 -20z m-95 -142 c0 -18 -93 -102 -200 -180 -52 -39 -105 -82 -117 -96 l-23
-27 0 86 c0 80 2 88 31 128 17 23 55 55 83 71 46 27 60 30 139 30 61 0 87 -4
87 -12z m1359 -73 l22 -26 -32 -31 -31 -32 -20 27 c-11 15 -27 27 -36 27 -12
0 -6 10 18 30 43 36 51 37 79 5z m-1329 -178 l0 -53 -87 -87 c-49 -48 -124
-113 -168 -145 -44 -32 -86 -66 -94 -75 -7 -10 -17 -17 -20 -17 -4 0 -6 39 -3
88 l4 87 41 38 c65 60 221 159 225 143 2 -8 19 3 47 30 24 24 46 44 49 44 3 0
6 -24 6 -53z m1326 -93 c29 -31 29 -29 2 -56 -17 -17 -24 -19 -37 -9 -9 6 -24
14 -33 17 -10 4 -18 9 -18 12 0 7 52 62 58 62 3 0 15 -11 28 -26z m-1317 -271
c1 -28 -14 -45 -141 -160 -79 -71 -167 -148 -195 -172 l-53 -43 0 80 0 81 55
64 c65 77 106 110 199 162 39 21 81 52 95 68 l26 31 7 -40 c4 -21 7 -53 7 -71z
m-1102 -25 c-3 -7 -5 -2 -5 12 0 14 2 19 5 13 2 -7 2 -19 0 -25z m2420 -4 c23
-25 23 -27 6 -40 -43 -34 -51 -35 -77 -9 l-26 26 27 24 c35 31 40 31 70 -1z
m-1327 -278 c0 -48 -5 -60 -39 -104 -22 -27 -60 -64 -86 -81 -42 -29 -52 -31
-131 -31 -46 0 -84 4 -84 9 0 20 46 63 127 118 158 106 182 124 188 134 15 23
25 5 25 -45z m1317 -18 l38 -23 -28 -9 c-15 -6 -29 -18 -33 -28 -6 -19 -34
-26 -34 -8 0 5 -9 18 -21 28 l-20 20 27 21 c15 11 28 21 30 21 1 0 20 -10 41
-22z m-2357 -87 c22 -21 40 -44 40 -51 0 -21 -97 -110 -119 -110 -22 0 -101
85 -101 109 0 25 27 59 68 85 43 27 52 25 112 -33z m6612 22 c41 -34 67 -65
68 -78 0 -17 -60 -85 -90 -100 -27 -14 -30 -13 -73 28 -67 63 -69 80 -12 133
26 24 54 44 61 44 7 0 27 -12 46 -27z m-5511 -210 c4 -4 11 -25 14 -45 7 -34
5 -39 -20 -48 -28 -11 -452 -14 -479 -4 -19 7 -20 40 -3 74 9 18 24 27 52 32
53 9 426 1 436 -9z m-243 -189 c27 -8 28 -18 4 -41 -11 -10 -22 -26 -25 -36
-6 -15 -3 -17 13 -12 18 6 19 4 10 -19 -5 -14 -6 -27 -2 -30 10 -6 95 70 128
114 l26 35 -6 -30 c-9 -37 -70 -103 -112 -121 -47 -20 -111 2 -171 59 -31 29
-42 65 -26 80 8 9 130 9 161 1z m4993 -587 c55 -37 76 -78 84 -161 8 -88 0
-271 -13 -306 -30 -77 -150 -179 -239 -203 l-43 -11 0 -167 c0 -153 2 -167 20
-184 32 -29 24 -40 -42 -54 -35 -8 -84 -22 -110 -31 -46 -17 -48 -17 -48 -1 0
10 9 26 20 36 19 17 20 31 20 220 0 189 -1 203 -20 220 -26 24 -25 33 5 57
l24 19 -6 212 -6 212 -28 30 c-16 17 -29 34 -29 38 0 4 17 7 38 7 22 0 65 10
98 21 220 81 223 81 275 46z m-5111 -72 c138 -45 156 -54 196 -97 54 -57 71
-103 78 -218 7 -124 -3 -170 -45 -203 l-30 -23 35 -53 36 -53 0 -172 0 -172
-28 -28 c-49 -46 -82 -45 -259 14 -87 29 -164 54 -170 56 -15 4 -18 44 -4 44
5 0 17 7 25 16 13 13 16 45 16 197 0 164 -2 185 -20 215 -25 41 -25 48 0 55
19 5 20 14 20 191 0 192 -7 234 -43 265 -10 7 -17 22 -17 32 0 18 3 18 48 -4
26 -14 99 -41 162 -62z m4570 -105 c16 -11 38 -40 50 -65 20 -42 22 -58 19
-204 -3 -125 0 -162 11 -176 12 -14 11 -21 -5 -47 -16 -28 -17 -47 -11 -195 7
-164 7 -165 -18 -207 -49 -83 -121 -125 -243 -143 -34 -4 -50 -1 -86 20 -77
45 -81 58 -74 230 l6 149 -32 29 -32 30 32 27 32 27 3 176 3 177 38 55 c48 70
93 105 166 128 63 21 100 18 141 -11z m-3947 -90 c51 -16 100 -35 109 -42 38
-31 51 -105 56 -308 3 -172 6 -197 23 -218 24 -31 24 -48 -1 -55 -19 -5 -19
-12 -14 -169 5 -146 8 -168 30 -212 21 -42 22 -48 7 -43 -10 3 -55 16 -100 28
-63 18 -83 28 -83 42 0 9 5 17 10 17 6 0 10 54 10 143 l0 143 -47 16 c-51 17
-103 30 -103 26 -1 -2 -5 -63 -10 -137 -8 -111 -7 -138 5 -162 8 -15 12 -30 7
-32 -4 -3 -34 4 -67 14 -33 10 -67 19 -75 19 -8 0 -22 5 -30 10 -13 9 -13 12
3 24 21 16 37 136 37 281 0 74 -4 94 -20 115 -27 34 -25 40 10 40 l30 0 0 168
c0 92 5 184 11 205 11 42 73 117 95 117 8 0 56 -13 107 -30z m3517 -1 c0 -6
-14 -27 -31 -46 l-30 -35 7 -211 c4 -123 11 -215 17 -219 6 -4 4 -21 -7 -47
-23 -59 -24 -412 -1 -431 25 -21 13 -32 -55 -50 -36 -9 -82 -24 -102 -34 -36
-15 -38 -15 -38 1 0 9 11 28 24 42 24 25 25 30 28 214 2 120 -1 187 -7 187 -5
-1 -46 -16 -90 -35 l-80 -33 -6 -179 c-6 -166 -5 -179 12 -192 27 -19 24 -41
-5 -41 -13 0 -58 -12 -101 -26 -42 -14 -79 -23 -82 -20 -3 3 6 23 21 44 26 38
26 40 26 211 0 160 -2 175 -22 212 l-23 39 26 22 26 23 -6 207 c-6 201 -7 207
-30 232 -14 14 -23 28 -20 30 2 2 37 9 77 15 41 6 87 18 102 26 16 8 31 15 35
15 13 0 3 -39 -15 -60 -19 -21 -20 -37 -20 -222 0 -109 4 -198 8 -198 4 0 44
13 88 29 l79 29 3 188 c2 174 1 192 -18 225 l-20 36 71 18 c40 9 88 23 108 30
46 17 51 18 51 4z m-3166 -83 c44 -14 125 -34 179 -46 89 -20 103 -26 139 -62
65 -65 78 -104 78 -244 0 -116 -1 -122 -30 -167 -16 -25 -38 -52 -50 -59 -21
-13 -27 -43 -10 -53 19 -12 59 -166 70 -269 12 -117 15 -129 42 -168 24 -35
14 -36 -67 -8 -32 11 -68 20 -80 20 -30 0 -36 9 -24 32 22 40 -36 339 -74 386
-6 7 -25 12 -45 10 l-34 -3 1 -170 c2 -134 5 -175 17 -193 9 -13 14 -26 11
-28 -4 -4 -198 45 -206 52 -2 2 8 17 22 34 26 30 26 31 24 198 -3 152 -5 170
-24 201 l-22 35 22 11 c21 10 22 17 25 165 4 219 -2 273 -40 316 -16 19 -25
34 -18 34 7 0 49 -11 94 -24z m-1287 -31 c32 -32 35 -39 30 -78 -6 -46 -52
-97 -86 -97 -23 0 -78 61 -87 94 -11 45 44 116 89 116 11 0 35 -16 54 -35z
m5730 3 c53 -58 55 -98 9 -144 -42 -42 -71 -43 -113 -2 -27 26 -33 40 -33 72
0 80 88 127 137 74z m-3806 -93 c158 -20 205 -39 263 -108 l41 -49 3 -128 4
-129 -45 -45 -45 -44 39 -38 c54 -53 62 -87 57 -246 -3 -130 -5 -137 -32 -172
-15 -21 -47 -47 -71 -58 -41 -20 -45 -20 -121 -5 -44 9 -118 21 -166 28 -49 7
-88 17 -88 21 0 5 9 16 20 25 19 16 20 30 20 199 0 152 -3 184 -16 194 -8 8
-20 22 -26 33 -8 16 -5 23 18 42 l27 22 -2 182 c-2 187 -6 213 -41 261 -27 38
-26 52 4 41 13 -5 84 -17 157 -26z m1852 -19 c41 -32 53 -64 60 -158 4 -64 3
-68 -17 -68 -11 -1 -44 -9 -72 -18 l-51 -18 5 67 c4 58 2 69 -17 88 -11 11
-29 21 -38 21 -24 -1 -106 -38 -115 -53 -4 -7 -8 -51 -8 -98 0 -101 -2 -99
157 -203 142 -92 147 -101 151 -254 3 -109 1 -127 -18 -167 -42 -87 -148 -145
-265 -145 -41 0 -61 6 -97 30 -68 45 -72 53 -75 146 -2 78 -1 84 18 84 11 0
43 8 72 19 l53 18 0 -70 c-1 -64 1 -71 26 -90 26 -20 28 -20 73 -2 68 25 85
59 85 166 0 100 0 101 -125 174 -179 105 -201 138 -192 289 5 80 11 106 32
142 52 89 150 136 271 130 37 -2 60 -10 87 -30z m-1348 -47 c55 -4 146 -8 203
-9 l102 0 0 -79 c0 -44 3 -87 6 -96 6 -14 0 -16 -37 -13 -43 3 -44 4 -47 39
-3 34 -6 37 -40 43 -20 3 -59 6 -86 6 l-49 0 6 -97 c4 -54 7 -130 7 -168 l0
-71 80 10 c44 5 82 7 85 5 2 -3 1 -38 -2 -79 l-5 -75 -78 3 -78 3 -5 -33 c-3
-18 -6 -90 -6 -160 l-1 -128 84 0 c83 0 85 1 119 35 19 19 39 35 43 35 7 0 7
-190 0 -197 -1 -1 -93 3 -204 9 -178 11 -202 14 -202 29 0 9 7 22 15 29 12 10
15 46 15 200 l0 188 -27 33 -27 32 29 23 30 24 -4 192 c-3 196 -9 227 -45 257
-21 18 -20 35 2 26 9 -4 62 -11 117 -16z m776 -35 c70 -48 74 -61 74 -229 0
-163 -2 -169 -62 -236 l-35 -39 37 -115 c20 -63 42 -152 49 -198 8 -54 20 -94
34 -114 12 -17 22 -36 22 -42 0 -7 -34 -11 -100 -11 -98 0 -112 4 -88 28 17
17 -7 185 -41 292 l-27 85 -44 0 -45 0 -3 -170 c-2 -158 -1 -171 18 -197 12
-16 18 -33 15 -38 -9 -14 -202 -13 -210 1 -4 6 2 21 14 33 20 21 21 33 21 217
l0 196 -25 23 c-32 30 -31 36 5 55 l30 16 0 195 c0 195 0 196 -25 226 -14 16
-25 34 -25 39 0 5 79 9 187 9 185 0 187 0 224 -26z m2574 -513 c-16 -51 -305
-156 -675 -246 -296 -72 -523 -129 -755 -190 -438 -116 -938 -224 -1140 -247
-158 -18 -566 -15 -760 5 -294 30 -828 131 -1250 235 -110 27 -254 62 -320 77
-66 15 -219 56 -340 90 -523 150 -682 216 -673 280 4 27 14 25 153 -34 178
-76 349 -132 655 -215 719 -194 1338 -322 1794 -371 149 -16 493 -19 641 -5
332 29 786 125 1320 277 169 48 288 78 550 139 88 20 225 58 305 84 179 59
393 134 440 154 29 12 37 12 49 1 8 -7 10 -21 6 -34z m-620 -369 c-27 -24
-332 -229 -405 -272 -25 -15 -121 -76 -215 -135 -93 -60 -260 -163 -370 -230
-110 -66 -247 -150 -305 -186 -236 -147 -390 -240 -480 -290 -52 -29 -169 -97
-259 -151 -90 -55 -189 -113 -220 -129 -31 -16 -64 -35 -74 -42 -15 -10 -32
-5 -110 35 -50 26 -153 85 -227 131 -137 85 -178 109 -445 270 -82 49 -179
109 -215 132 -73 48 -190 120 -330 205 -317 190 -994 623 -1007 644 -7 11 31
0 90 -26 26 -12 47 -25 47 -30 0 -5 4 -6 10 -3 6 3 10 0 10 -7 0 -7 49 -37
108 -67 107 -54 267 -148 632 -371 107 -66 227 -139 265 -162 39 -22 111 -67
160 -98 50 -32 162 -102 250 -156 88 -53 196 -120 240 -147 44 -27 100 -62
125 -77 25 -15 95 -58 155 -95 155 -96 176 -104 233 -93 26 4 87 32 137 62 50
29 144 84 210 123 66 38 260 154 430 258 171 103 445 269 610 367 165 99 314
190 330 202 17 13 115 71 219 131 104 59 210 122 235 140 26 19 69 43 96 54
52 21 86 27 70 13z m-467 -152 c-96 -63 -565 -351 -769 -473 -48 -29 -174
-104 -280 -168 -641 -385 -806 -479 -841 -479 -27 0 -172 78 -308 166 -69 45
-163 103 -210 129 -47 27 -131 77 -187 112 -56 35 -239 146 -405 247 -167 101
-364 221 -438 266 -74 46 -169 105 -212 130 -42 26 -89 56 -105 68 l-28 21 51
1 c79 0 196 -64 804 -440 284 -176 548 -333 615 -367 45 -23 93 -59 137 -103
95 -96 176 -135 278 -135 61 0 85 6 132 28 69 34 144 84 218 147 30 26 107 75
170 110 151 83 346 198 605 355 116 71 246 149 290 175 44 26 121 72 170 102
167 103 289 155 363 155 18 0 5 -12 -50 -47z m1115 -160 c138 0 167 -2 167
-14 0 -24 -84 -28 -379 -19 -198 6 -275 11 -278 20 -6 16 70 22 212 17 61 -2
185 -4 278 -4z m-5528 -14 c12 -11 8 -14 -23 -20 -49 -8 -258 -8 -454 1 -122
5 -158 9 -158 20 0 20 615 19 635 -1z m3645 -23 c0 -10 -82 -65 -138 -93 -27
-13 -57 -20 -80 -18 l-37 3 25 24 c51 48 230 114 230 84z m-2024 -52 c45 -21
90 -51 102 -66 47 -60 23 -59 -110 3 -104 49 -135 72 -123 92 12 19 50 10 131
-29z m-2098 -63 c17 -17 15 -79 -4 -106 -12 -17 -25 -22 -60 -22 -41 0 -44 -2
-44 -26 0 -26 1 -26 60 -22 l60 4 0 -28 0 -28 -86 0 -87 0 6 53 c4 29 13 57
22 63 19 14 19 33 0 40 -15 6 -21 64 -8 77 11 12 128 8 141 -5z m238 -9 c18
-15 18 -52 0 -88 -13 -25 -13 -28 4 -39 16 -10 18 -16 8 -42 -16 -48 -44 -61
-108 -51 -83 13 -97 53 -36 102 l21 17 -22 24 c-27 29 -30 73 -5 88 21 13 118
6 138 -11z m245 -5 c23 -21 24 -42 2 -66 -15 -17 -15 -19 0 -36 23 -25 21 -54
-4 -86 -17 -22 -28 -26 -70 -26 -77 0 -113 52 -73 108 14 20 14 24 0 44 -25
36 -20 67 12 74 15 3 32 7 37 10 20 7 78 -6 96 -22z m5199 13 c29 -14 38 -63
20 -97 -9 -16 -8 -25 0 -35 8 -9 9 -29 5 -53 l-6 -39 -58 -6 c-32 -2 -70 -2
-86 0 -27 6 -27 7 -22 61 3 30 11 58 17 62 9 6 9 13 1 28 -15 28 -14 79 2 85
24 10 102 6 127 -6z m261 -3 c17 -10 9 -57 -13 -81 l-22 -23 22 -16 c26 -18
27 -34 7 -74 -15 -29 -18 -30 -86 -30 -85 0 -92 10 -58 82 18 39 21 52 11 56
-18 6 -34 50 -27 73 4 11 19 20 38 22 36 5 114 0 128 -9z m226 -6 c26 -24 29
-54 8 -82 -12 -16 -12 -21 0 -40 38 -53 6 -96 -72 -96 -95 0 -111 24 -73 108
20 44 20 44 0 49 -29 8 -28 61 3 73 43 17 109 12 134 -12z m-2347 2 c0 -13
-29 -27 -75 -35 -50 -9 -37 10 21 30 47 17 54 18 54 5z m-1423 -22 c30 -28 29
-60 -1 -95 -23 -26 -26 -27 -41 -12 -21 21 -34 79 -24 107 11 28 36 28 66 0z
m1273 2 c15 -27 4 -57 -26 -77 -23 -15 -26 -15 -49 7 -31 29 -31 35 0 65 29
30 61 32 75 5z m-200 -29 c0 -32 -14 -41 -62 -41 -25 0 -29 4 -26 22 3 23 39
48 71 48 12 0 17 -8 17 -29z m-862 7 c19 -19 14 -46 -10 -59 -18 -10 -24 -8
-40 11 -28 34 -24 60 10 60 15 0 33 -5 40 -12z m-1714 -62 c23 -35 20 -49 -14
-74 -38 -28 -40 -28 -78 11 -28 29 -38 33 -94 35 -88 4 -86 12 3 12 70 0 77 2
104 30 31 33 50 29 79 -14z m4315 12 c38 -39 39 -57 3 -92 l-29 -27 -26 35
c-15 19 -27 40 -27 46 0 15 32 70 41 70 4 0 21 -14 38 -32z m-2111 -7 c70 -36
132 -122 147 -205 10 -50 -28 -148 -76 -197 -61 -62 -182 -88 -252 -54 -18 8
-51 32 -75 53 -37 32 -46 47 -62 108 -23 89 -14 147 33 212 65 91 196 129 285
83z m-527 -51 c23 -13 25 -48 5 -76 -12 -15 -18 -17 -33 -8 -22 13 -29 60 -12
80 14 17 15 17 40 4z m929 -15 c0 -17 -43 -65 -59 -65 -15 0 -42 31 -38 44 10
30 97 49 97 21z m-2356 -71 c22 -22 20 -41 -9 -69 -31 -31 -50 -32 -70 -1 -19
29 -7 62 28 76 31 12 34 12 51 -6z m3840 -6 c9 -12 16 -26 16 -29 0 -16 -53
-69 -68 -69 -24 0 -52 31 -52 58 0 57 73 85 104 40z m-4384 -118 c0 -6 -6 -12
-12 -15 -7 -2 -178 -5 -380 -7 -350 -4 -368 -3 -368 14 0 17 20 18 380 18 254
0 380 -3 380 -10z m4158 -15 c22 -28 19 -55 -9 -81 -18 -16 -20 -16 -44 6 -40
37 -29 100 16 100 10 0 26 -11 37 -25z m1412 10 c0 -13 -29 -15 -192 -16 -106
-1 -271 -2 -365 -3 -158 -1 -173 0 -173 17 0 16 24 17 365 17 318 0 365 -2
365 -15z m-4825 -15 c15 -16 17 -26 9 -47 -15 -43 -39 -51 -69 -23 -31 29 -31
37 -3 67 26 28 40 29 63 3z m379 -216 c20 -20 20 -43 0 -72 -20 -29 -35 -28
-68 7 -23 24 -26 32 -17 49 18 34 60 42 85 16z m2648 -1 c26 -23 22 -58 -8
-82 -32 -25 -35 -23 -59 30 -19 40 -19 42 0 55 25 18 44 18 67 -3z"/>
<path d="M4820 8850 c-158 -40 -260 -98 -350 -198 -60 -66 -130 -204 -156
-307 -25 -97 -25 -270 0 -345 31 -91 86 -192 137 -251 27 -31 49 -59 49 -61 0
-3 -19 -11 -41 -18 -76 -25 -109 -76 -109 -167 0 -29 -8 -42 -47 -78 l-48 -43
0 -77 0 -77 43 -38 c25 -23 42 -46 42 -60 0 -31 17 -59 50 -79 l29 -17 4
-1137 c2 -859 0 -1137 -9 -1137 -24 0 -64 -43 -108 -117 -39 -65 -46 -86 -46
-129 0 -63 33 -131 78 -159 17 -11 31 -29 32 -40 1 -35 49 -127 96 -182 52
-60 134 -126 214 -171 155 -87 392 -83 575 11 140 72 305 259 305 347 0 21 8
29 35 39 46 16 76 74 83 158 5 70 -10 105 -54 125 -15 7 -24 20 -24 34 0 29
-24 52 -78 76 -31 14 -42 24 -38 35 3 8 6 518 6 1134 l0 1119 25 10 c25 9 38
31 49 80 4 14 21 34 38 45 46 29 66 96 50 173 -9 47 -19 64 -53 94 -33 30 -40
43 -35 61 16 66 -45 152 -115 163 l-38 6 63 82 c75 96 96 136 126 236 45 151
34 328 -29 481 -96 229 -373 407 -620 397 -36 -1 -95 -9 -131 -18z m320 -111
c88 -29 177 -88 253 -168 76 -81 117 -173 138 -308 33 -215 -61 -428 -234
-529 -73 -43 -132 -58 -178 -46 l-34 9 45 23 c33 17 41 19 31 6 -21 -26 3 -20
71 16 80 43 178 139 211 208 45 95 61 280 33 386 -55 207 -275 384 -477 384
-45 0 -26 -17 25 -22 56 -7 112 -35 202 -104 61 -46 78 -66 122 -146 53 -97
72 -168 72 -273 0 -68 -25 -177 -52 -233 -22 -44 -126 -167 -135 -158 -2 2 14
23 35 47 93 100 132 204 132 349 0 98 -19 182 -57 252 -35 65 -143 165 -223
208 -59 31 -74 35 -165 38 -55 2 -97 1 -93 -3 5 -5 46 -14 94 -21 75 -11 92
-18 140 -54 127 -95 188 -179 219 -300 29 -112 3 -281 -59 -378 -33 -52 -88
-101 -186 -168 -104 -70 -102 -68 -62 -61 18 4 32 2 32 -3 0 -13 -197 -13
-280 1 -160 26 -303 164 -352 338 -35 128 -15 300 52 436 56 117 230 254 358
284 20 5 87 9 148 10 87 1 124 -3 174 -20z m283 -1161 c29 -15 50 -55 43 -83
-8 -30 -26 -33 -26 -4 0 11 -5 29 -10 40 -9 17 -22 19 -103 18 -121 0 -295
-14 -304 -23 -11 -11 18 -26 52 -26 17 0 48 -7 70 -14 31 -11 36 -16 22 -21
-9 -4 -160 -8 -335 -9 l-317 -1 -3 27 c-3 22 1 27 25 31 20 3 16 4 -14 6 -43
1 -43 1 -43 -34 0 -43 -26 -48 -35 -7 -13 61 22 103 94 113 65 10 862 -2 884
-13z m115 -220 c5 -7 13 -24 17 -37 7 -23 7 -23 -16 -7 -14 9 -44 16 -74 16
-87 0 -390 -22 -398 -30 -4 -4 29 -10 75 -14 46 -4 152 -14 236 -21 84 -7 156
-16 159 -19 4 -3 -74 -6 -173 -6 -98 -1 -314 -5 -479 -10 -165 -5 -342 -7
-394 -3 -84 5 -98 9 -124 33 -29 26 -30 29 -17 59 7 17 20 36 29 41 26 15
1146 13 1159 -2z m-76 -200 c-18 -18 -1024 -18 -1029 0 -4 9 104 12 518 12
403 0 520 -3 511 -12z m-152 -132 c0 -26 -81 -134 -147 -196 -36 -34 -98 -86
-137 -115 -94 -70 -313 -262 -366 -322 -51 -58 -116 -152 -135 -196 -13 -29
-14 -12 -15 165 0 239 7 278 67 361 62 84 204 223 282 275 l63 42 194 0 c159
0 194 -3 194 -14z m61 -884 c-34 -66 -202 -242 -341 -357 -280 -231 -426 -380
-480 -484 -20 -39 -23 -42 -32 -26 -13 22 -2 381 14 440 19 76 185 266 338
387 344 273 444 362 496 443 l19 29 3 -197 c2 -179 1 -200 -17 -235z m24 -699
c0 -210 0 -212 -78 -308 -70 -87 -129 -145 -217 -213 -47 -36 -108 -85 -135
-109 -28 -23 -63 -47 -79 -52 -15 -6 -102 -11 -197 -11 l-170 0 6 23 c21 68
149 234 248 321 34 30 123 101 197 157 159 120 217 172 329 297 46 50 86 90
89 88 4 -2 7 -89 7 -193z m95 -796 c0 -23 -3 -24 -147 -36 -82 -7 -157 -15
-168 -17 -11 -3 -48 -7 -83 -11 -127 -12 -41 -25 214 -31 l259 -7 3 -25 c3
-20 2 -22 -11 -12 -18 15 -271 16 -437 2 -63 -5 -255 -10 -427 -10 -240 0
-312 -3 -316 -12 -2 -7 -8 4 -12 24 -9 47 -4 54 47 63 37 6 40 8 21 15 -15 6
-20 15 -16 30 3 11 10 24 17 28 6 4 238 9 516 12 278 3 513 7 523 8 12 1 17
-5 17 -21z m-530 -205 c234 0 464 3 513 6 48 4 87 4 87 0 0 -3 -17 -12 -37
-19 -45 -15 -1020 -17 -1092 -3 -76 16 -59 30 26 22 43 -3 269 -7 503 -6z
m495 -114 c-19 -91 -113 -204 -216 -261 -218 -121 -460 -93 -641 73 -66 60
-128 141 -128 167 0 30 28 9 68 -51 80 -122 197 -202 341 -232 67 -14 82 -14
150 0 114 23 209 75 295 160 56 55 77 83 90 124 11 32 23 52 33 52 11 0 13 -7
8 -32z m-401 -14 c24 -9 4 -57 -58 -138 -26 -34 -27 -37 -8 -27 39 21 94 83
115 130 17 37 22 42 25 24 9 -56 -84 -163 -160 -183 -46 -13 -148 -6 -183 12
-18 10 -19 10 -6 -6 35 -42 133 -62 212 -45 54 12 158 79 200 128 16 20 26 26
20 15 -16 -33 -115 -119 -163 -142 -98 -46 -173 -36 -318 43 -87 47 -128 81
-182 148 -26 32 -29 41 -17 49 14 10 495 3 523 -8z"/>
<path d="M4800 8621 c-13 -10 -13 -11 0 -12 8 -1 25 0 37 0 28 3 170 -27 195
-40 57 -31 147 -146 178 -228 74 -193 -13 -413 -202 -516 -44 -24 -68 -30
-142 -33 -50 -3 -112 1 -142 7 -101 23 -236 149 -270 253 l-14 43 5 -40 c14
-116 137 -272 247 -313 122 -46 263 -37 364 21 263 154 329 464 150 699 -41
53 -136 127 -186 144 -51 18 -201 28 -220 15z"/>
<path d="M5014 8507 c32 -32 67 -82 90 -129 32 -64 39 -89 43 -160 5 -76 3
-88 -22 -141 -35 -73 -116 -148 -193 -178 -43 -17 -78 -23 -142 -23 -81 0 -89
2 -165 43 l-80 43 53 -51 c81 -77 100 -85 229 -89 107 -4 115 -3 157 22 81 47
160 130 192 198 35 77 39 181 10 268 -24 72 -96 173 -154 215 -69 51 -78 42
-18 -18z"/>
<path d="M5068 8335 c4 -22 7 -71 6 -110 -1 -175 -145 -292 -347 -283 -87 4
-90 -12 -6 -32 143 -35 305 44 367 178 21 46 24 65 20 126 -3 43 -13 89 -26
116 l-21 45 7 -40z"/>
<path d="M4431 8114 c0 -11 3 -14 6 -6 3 7 2 16 -1 19 -3 4 -6 -2 -5 -13z"/>
<path d="M4380 7301 c0 -11 115 -21 220 -19 80 1 78 1 -40 9 -69 4 -137 10
-152 13 -16 3 -28 2 -28 -3z"/>
<path d="M7499 8168 c-25 -41 -162 -320 -244 -498 -250 -544 -299 -647 -311
-659 -15 -17 -10 -27 -84 167 -28 73 -54 148 -57 165 l-6 32 37 -44 c20 -24
44 -58 53 -75 17 -34 52 -76 63 -76 12 0 60 79 60 98 0 23 -29 49 -105 95 -84
49 -105 55 -105 25 0 -26 -227 419 -284 559 -21 50 -49 101 -61 113 -27 26
-45 22 -104 -20 -50 -37 -52 -58 -17 -193 26 -95 48 -183 70 -277 26 -106 56
-209 74 -257 11 -26 36 -109 56 -183 84 -304 109 -391 148 -511 l41 -125 -84
-105 c-113 -140 -143 -182 -236 -334 -161 -263 -228 -400 -410 -851 -27 -66
-62 -143 -78 -170 -16 -27 -29 -52 -28 -56 1 -3 -18 -66 -43 -140 -60 -177
-75 -243 -65 -293 13 -65 29 -96 68 -131 l36 -33 -17 -46 c-32 -83 -64 -110
-163 -135 -68 -17 -95 -77 -52 -116 56 -51 212 -3 298 92 52 56 91 129 91 168
0 20 6 24 43 30 58 10 141 95 190 197 30 61 39 95 52 194 18 144 27 188 116
550 91 374 184 632 288 801 24 40 163 128 188 120 10 -4 54 -37 97 -74 90 -76
137 -150 181 -286 31 -97 38 -87 -125 -161 -60 -27 -110 -56 -110 -63 0 -7 9
-30 19 -51 63 -123 300 -771 301 -821 1 -48 10 -53 88 -41 39 6 77 11 84 11 9
0 20 -30 31 -92 29 -150 80 -221 188 -257 57 -19 81 -36 175 -122 163 -149
264 -190 353 -145 74 39 42 162 -48 182 -87 20 -107 29 -149 68 -44 42 -45 43
-52 129 -25 267 -198 815 -385 1217 -132 283 -278 538 -372 648 -46 54 -83
103 -83 109 0 7 14 36 32 64 17 29 46 91 64 138 17 47 44 115 58 151 15 36 42
106 61 155 18 50 47 126 64 170 36 95 92 269 155 490 26 88 65 217 86 286 22
70 40 135 40 147 0 12 -13 29 -32 41 -18 11 -46 30 -63 41 -41 27 -52 25 -76
-12z m62 -161 c-11 -34 -36 -124 -56 -201 -52 -199 -143 -470 -260 -771 -26
-66 -62 -162 -81 -214 -36 -98 -80 -181 -95 -181 -5 0 -9 5 -9 11 0 6 -6 25
-14 42 -66 145 -76 187 -53 222 8 11 29 56 47 100 18 44 45 105 60 135 15 30
48 102 73 160 69 161 344 720 375 759 36 47 41 23 13 -62z m-1132 -106 c11
-21 38 -92 59 -157 22 -66 68 -189 102 -274 62 -155 146 -386 223 -618 26 -79
47 -127 59 -133 23 -12 23 -2 3 83 -17 76 -52 176 -95 278 -17 41 -44 113 -60
160 -16 47 -58 150 -94 229 -36 80 -66 147 -66 150 1 31 157 -308 195 -424 13
-38 44 -119 70 -180 26 -60 59 -150 72 -200 13 -49 31 -104 39 -122 8 -17 14
-35 14 -40 0 -4 10 -26 22 -48 33 -63 68 -156 74 -200 3 -24 22 -64 49 -105
33 -48 43 -71 39 -88 l-7 -23 -31 29 c-17 16 -55 46 -85 67 -93 67 -153 123
-178 166 -29 52 -143 410 -213 669 -29 107 -69 247 -90 310 -21 63 -48 158
-60 210 -12 52 -33 136 -46 186 -24 93 -28 114 -19 114 2 0 13 -17 24 -39z
m394 -1582 c15 -10 4 -21 -47 -49 -51 -27 -70 -21 -38 13 30 32 27 43 -5 18
-14 -12 -33 -19 -42 -16 -25 7 -34 -3 -86 -95 -27 -47 -65 -110 -85 -140 -70
-105 -184 -314 -248 -454 -63 -137 -226 -534 -282 -686 -16 -41 -42 -107 -59
-146 -33 -78 -47 -162 -37 -219 19 -99 185 -101 246 -3 28 45 62 177 116 448
35 174 88 395 131 540 61 206 163 472 186 487 4 3 -3 -17 -16 -43 -13 -27 -32
-74 -42 -104 -10 -30 -28 -77 -40 -105 -44 -101 -145 -485 -195 -740 -6 -33
-22 -100 -35 -150 -12 -49 -30 -130 -39 -178 -31 -164 -89 -238 -194 -244 -70
-5 -116 20 -139 74 -39 94 14 257 327 1008 100 241 273 540 409 709 31 38 75
94 99 123 l44 55 30 -49 c17 -26 35 -51 41 -54z m269 41 c63 -84 79 -110 69
-110 -11 0 -60 66 -92 125 -25 47 -23 45 23 -15z m156 -345 c16 -34 51 -128
77 -210 61 -197 198 -748 230 -928 14 -78 31 -168 37 -200 16 -86 63 -159 113
-175 48 -16 100 -10 127 15 31 27 19 129 -30 278 -22 66 -43 136 -47 155 -3
19 -25 91 -46 159 -22 68 -38 125 -36 128 8 7 87 -238 148 -457 70 -253 46
-327 -100 -300 -96 17 -137 96 -191 367 -49 247 -92 436 -131 578 -16 61 -41
153 -55 205 -47 173 -106 354 -141 432 -23 50 -33 84 -28 95 6 14 11 7 25 -32
9 -27 31 -77 48 -110z m-646 43 c-8 -8 -9 -4 -5 13 4 13 8 18 11 10 2 -7 -1
-18 -6 -23z m838 -252 c0 -12 -5 -7 -19 24 -11 24 -11 24 3 6 9 -11 16 -24 16
-30z m35 -66 c20 -39 38 -86 30 -78 -10 10 -55 108 -50 108 3 0 11 -13 20 -30z
m-221 -112 c9 -40 36 -145 61 -233 55 -198 127 -479 133 -522 4 -30 2 -32 -34
-38 -22 -4 -45 -7 -53 -8 -16 -2 -30 31 -132 325 -37 108 -84 236 -105 285
-33 80 -64 168 -64 184 0 4 19 11 43 17 23 6 58 22 77 36 19 14 40 25 47 26 6
0 18 -32 27 -72z m285 -33 c0 -5 -6 1 -14 15 -8 14 -14 30 -14 35 0 6 6 -1 14
-15 8 -14 14 -29 14 -35z m225 -877 c47 -67 -21 -157 -79 -105 -35 32 -41 67
-15 100 27 34 72 37 94 5z m-1691 -16 c34 -35 34 -65 1 -91 -37 -29 -79 -27
-109 5 -33 35 -31 57 6 88 39 33 69 33 102 -2z m1944 -438 c18 -8 55 -14 83
-14 47 0 50 -2 50 -25 0 -21 -5 -25 -30 -25 -70 0 -140 46 -230 151 -87 101
-73 109 17 10 43 -46 92 -90 110 -97z m-2061 52 c-9 -25 -34 -63 -54 -85 -40
-44 -140 -101 -176 -101 -13 1 3 13 45 35 75 38 138 103 166 170 24 59 42 41
19 -19z"/>
<path d="M6751 6794 c0 -11 3 -14 6 -6 3 7 2 16 -1 19 -3 4 -6 -2 -5 -13z"/>
<path d="M6882 6594 c-21 -9 -44 -63 -36 -87 20 -68 95 -90 134 -40 47 61 -27
156 -98 127z m46 -61 c5 -10 7 -24 5 -30 -6 -18 -42 -16 -49 2 -15 38 26 63
44 28z"/>
<path d="M7741 4668 c0 -9 -4 -25 -7 -35 -5 -14 -4 -15 5 -7 7 7 11 22 8 35
-2 13 -5 16 -6 7z"/>
<path d="M5990 4661 c0 -19 36 -36 45 -21 9 15 -7 40 -26 40 -12 0 -19 -7 -19
-19z"/>
<path d="M5710 8106 c0 -18 -3 -48 -6 -65 -5 -26 -3 -31 12 -31 43 0 334 -161
489 -271 121 -85 137 -86 115 -7 -15 51 -64 92 -230 187 -80 46 -190 111 -245
146 -132 82 -135 83 -135 41z"/>
<path d="M5676 7951 c-18 -35 -18 -35 79 -84 39 -19 162 -92 275 -161 226
-139 319 -190 345 -184 30 6 -37 85 -83 97 -21 6 -63 29 -93 50 -93 68 -428
277 -476 297 -31 14 -33 13 -47 -15z"/>
<path d="M4170 7933 c-178 -103 -292 -171 -331 -198 -25 -18 -104 -62 -175
-98 -71 -37 -165 -91 -209 -121 -44 -30 -145 -94 -223 -143 -215 -132 -315
-198 -331 -216 -20 -25 8 -32 53 -13 57 24 282 153 376 216 112 75 246 156
345 210 44 24 127 73 185 110 58 37 167 100 243 140 137 73 163 94 151 124 -9
22 -32 19 -84 -11z"/>
<path d="M5597 7794 l-48 -65 26 -27 c37 -36 62 -88 70 -145 4 -27 15 -53 25
-60 22 -15 45 -60 60 -117 9 -35 9 -57 0 -100 -22 -106 -30 -127 -61 -166 -17
-21 -40 -57 -51 -79 -11 -22 -28 -49 -37 -60 -15 -18 -16 -109 -11 -1082 l5
-1062 34 -35 c19 -20 41 -36 48 -36 6 0 15 17 18 38 18 103 72 206 155 296 65
69 75 87 97 159 8 29 33 98 54 155 50 131 50 138 -3 153 -48 13 -38 25 28 33
27 4 46 14 61 33 13 15 23 31 23 35 0 4 -67 6 -150 5 -126 -2 -152 1 -165 14
-15 15 -17 94 -22 782 l-6 766 27 10 c36 14 53 5 60 -31 3 -17 6 -357 6 -756
l0 -725 102 7 101 7 22 -27 c28 -35 41 -26 54 38 7 29 22 61 35 75 13 12 38
51 56 84 63 119 317 486 392 567 45 49 45 53 -2 162 -15 36 -30 79 -34 95 -15
65 -79 295 -107 380 -16 50 -38 133 -49 185 -23 108 -18 102 -155 186 -49 30
-121 75 -160 99 -38 25 -126 79 -195 121 -69 42 -152 93 -185 114 -33 22 -62
39 -65 39 -3 0 -27 -30 -53 -65z m573 -484 c20 -33 25 -268 6 -287 -16 -16
-26 26 -26 107 0 137 13 127 -163 132 -84 3 -160 9 -169 13 -17 7 -24 35 -13
46 2 3 84 5 180 4 140 0 178 -3 185 -15z m-81 -106 c2 -2 -39 -4 -93 -4 -54 0
-95 4 -92 9 5 8 175 3 185 -5z m-41 -32 c19 -1 32 -7 32 -16 0 -9 -21 -15 -71
-20 -39 -4 -73 -5 -76 -3 -2 3 22 8 54 12 93 10 93 13 3 15 -53 1 -78 4 -65 9
19 8 38 8 123 3z m32 -70 c0 -4 -33 -6 -72 -4 -108 5 -115 10 -15 11 48 0 87
-3 87 -7z m0 -41 c0 -12 -158 -12 -166 0 -3 5 33 9 80 9 47 0 86 -4 86 -9z m8
-50 c2 -7 -26 -11 -87 -11 -70 0 -91 3 -91 14 0 10 19 12 87 10 52 -1 89 -7
91 -13z m-9 -47 c2 -2 -35 -4 -82 -4 -50 0 -87 4 -87 10 0 9 159 3 169 -6z
m27 -46 c4 -5 -38 -8 -94 -8 -75 0 -102 3 -102 13 0 9 23 11 94 7 52 -3 98 -8
102 -12z m-249 -120 c-2 -24 -4 -5 -4 42 0 47 2 66 4 43 2 -24 2 -62 0 -85z
m233 72 c0 -6 -37 -10 -90 -10 -53 0 -90 4 -90 10 0 6 37 10 90 10 53 0 90 -4
90 -10z m-2 -47 c3 -10 -19 -13 -87 -13 -71 0 -91 3 -91 14 0 19 171 18 178
-1z m53 -50 c-9 -15 -10 -13 -11 13 0 17 3 34 8 38 11 12 14 -32 3 -51z m-51
1 c0 -11 -5 -14 -16 -10 -9 3 -49 6 -90 6 -43 0 -74 4 -74 10 0 6 37 10 90 10
76 0 90 -3 90 -16z m5 -38 c0 -10 -175 -17 -190 -7 -5 3 22 9 60 12 91 8 130
6 130 -5z m-7 -51 c-8 -8 -178 -7 -178 1 0 11 174 22 179 11 1 -5 1 -10 -1
-12z m2 -24 c0 -10 -135 -21 -164 -12 -12 3 13 8 59 12 44 3 86 6 93 7 6 1 12
-2 12 -7z m10 -51 c0 -6 -38 -10 -95 -10 -57 0 -95 4 -95 10 0 6 38 10 95 10
57 0 95 -4 95 -10z m-10 -40 c0 -6 -37 -10 -90 -10 -49 0 -90 4 -90 9 0 5 41
10 90 10 53 0 90 -3 90 -9z m8 -47 c3 -10 -20 -13 -92 -13 -53 0 -96 4 -96 9
0 20 181 23 188 4z m2 -53 c0 -6 -38 -10 -95 -10 -57 0 -95 4 -95 10 0 6 38
10 95 10 57 0 95 -4 95 -10z m0 -40 c0 -6 -28 -10 -64 -10 -35 0 -78 -3 -95
-6 -24 -5 -31 -3 -31 10 0 14 14 16 95 16 57 0 95 -4 95 -10z m0 -50 c0 -6
-38 -10 -95 -10 -57 0 -95 4 -95 10 0 6 38 10 95 10 57 0 95 -4 95 -10z m-10
-39 c0 -10 -168 -20 -185 -11 -5 3 15 8 45 11 91 10 140 10 140 0z m10 -51 c0
-6 -40 -10 -100 -10 -60 0 -100 4 -100 10 0 6 40 10 100 10 60 0 100 -4 100
-10z m69 -140 c-1 -85 -5 -110 -15 -110 -10 0 -14 16 -14 58 0 31 -3 81 -6
110 -6 49 -5 52 15 52 21 0 22 -3 20 -110z m-121 90 c31 0 52 -3 47 -8 -15
-11 -195 -2 -195 10 0 7 16 8 46 4 26 -3 72 -6 102 -6z m42 -50 c0 -6 -38 -10
-95 -10 -57 0 -95 4 -95 10 0 6 38 10 95 10 57 0 95 -4 95 -10z m0 -50 c0 -6
-36 -10 -89 -10 -50 0 -93 5 -96 10 -4 6 28 10 89 10 57 0 96 -4 96 -10z
m-233 -177 c-2 -32 -3 -8 -3 52 0 61 1 87 3 58 2 -29 2 -78 0 -110z m233 137
c0 -6 -37 -10 -90 -10 -53 0 -90 4 -90 10 0 6 37 10 90 10 53 0 90 -4 90 -10z
m-5 -50 c0 -8 -5 -14 -12 -13 -7 2 -45 5 -85 8 -50 3 -63 2 -43 -4 l30 -9 -32
-1 c-27 -1 -33 3 -33 19 0 20 5 21 88 18 69 -2 87 -6 87 -18z m3 -46 c-9 -8
-178 -10 -178 -1 0 4 41 7 92 7 50 0 89 -3 86 -6z m-1 -38 c3 -3 -35 -6 -85
-6 -51 0 -92 3 -92 8 0 9 168 8 177 -2z m-22 -43 c-89 -8 -155 -7 -155 2 0 6
34 8 92 6 51 -3 80 -6 63 -8z m10 -43 c-53 -13 -165 -11 -165 3 0 9 24 11 97
8 69 -3 89 -6 68 -11z m-16 -44 c-11 -10 -149 -16 -149 -7 0 7 29 11 77 11 42
0 74 -2 72 -4z m1 -36 c0 -12 -29 -18 -98 -22 -61 -4 -74 18 -14 25 75 8 112
7 112 -3z"/>
<path d="M7380 6945 c-11 -29 -25 -124 -21 -144 1 -7 -2 -10 -8 -7 -13 8 -41
-33 -41 -60 0 -13 10 -25 27 -33 44 -20 282 -179 355 -238 42 -33 70 -64 74
-80 4 -15 4 -212 1 -437 -6 -345 -5 -421 8 -474 16 -67 74 -226 81 -219 2 2
-1 86 -7 188 -8 125 -8 305 -3 563 6 251 6 386 -1 397 -5 10 -62 55 -126 101
-64 46 -141 103 -170 128 -124 106 -137 120 -132 141 4 12 0 25 -8 30 -11 7
-11 9 2 9 26 0 100 -55 288 -212 31 -27 91 -76 134 -110 l79 -62 -2 -661 c-2
-692 -3 -682 46 -915 56 -271 63 -297 64 -257 1 20 1 451 2 957 0 761 -2 923
-13 937 -8 9 -54 49 -104 89 -49 41 -117 96 -150 124 -87 74 -284 222 -328
248 l-38 22 -9 -25z"/>
<path d="M7261 6608 c-12 -29 -28 -65 -37 -80 -14 -26 -13 -28 47 -100 65 -79
216 -343 328 -574 38 -78 73 -144 78 -147 6 -4 10 123 12 337 l3 344 -34 25
c-18 14 -82 56 -143 93 -60 37 -135 86 -166 110 -30 24 -58 44 -61 44 -3 0
-15 -24 -27 -52z"/>
<path d="M6868 6135 c-52 -38 -84 -78 -122 -150 -80 -155 -120 -273 -206 -615
-38 -151 -79 -306 -90 -345 -11 -38 -27 -128 -35 -200 -20 -182 -61 -297 -148
-408 -30 -38 -116 -107 -149 -120 -10 -3 -29 -30 -41 -59 -35 -78 -108 -148
-202 -193 -149 -70 -244 -56 -308 46 l-31 50 -18 -35 c-24 -46 -68 -90 -169
-167 -46 -35 -77 -65 -71 -67 24 -8 230 20 397 53 317 63 378 78 780 195 72
21 166 48 210 60 275 74 782 243 809 270 7 7 4 21 -9 43 -11 17 -29 66 -41
107 l-22 75 -76 5 c-48 3 -81 10 -90 20 -9 8 -22 50 -30 93 -8 43 -31 117 -51
165 -20 48 -56 139 -79 202 -24 63 -53 138 -65 165 -13 28 -34 81 -48 120 -14
38 -42 103 -63 145 -64 128 -67 118 65 180 63 30 124 64 136 76 26 28 20 64
-24 148 -31 58 -133 176 -152 176 -6 0 -31 -16 -57 -35z"/>
<path d="M5726 4405 c-3 -13 -27 -49 -51 -80 -44 -53 -44 -55 -20 -55 39 0
102 29 119 55 22 34 20 58 -7 83 -29 28 -33 28 -41 -3z"/>
<path d="M1879 7453 c5 -10 29 -36 52 -58 l43 -40 -48 58 c-49 58 -64 71 -47
40z"/>
<path d="M2030 7276 c0 -2 8 -10 18 -17 15 -13 16 -12 3 4 -13 16 -21 21 -21
13z"/>
<path d="M2114 7459 c-9 -16 18 -30 33 -17 7 6 13 14 13 19 0 13 -38 11 -46
-2z"/>
<path d="M3483 7093 c-16 -24 -18 -65 -23 -411 l-5 -385 -25 -16 c-95 -62
-157 -152 -172 -247 -8 -57 -14 -72 -31 -80 -40 -17 -50 -57 -42 -161 7 -92 8
-95 38 -114 l32 -19 1 -452 1 -453 -41 -36 c-41 -37 -41 -37 -40 -108 1 -79
22 -123 63 -129 16 -3 21 -10 21 -33 0 -33 47 -132 80 -167 45 -48 133 -82
210 -82 106 1 212 102 229 219 5 38 10 47 29 49 31 5 42 38 42 132 0 75 -1 79
-31 104 -17 14 -35 26 -40 26 -10 0 -13 771 -2 869 5 52 10 65 29 73 30 14 44
56 44 132 0 73 -13 121 -38 150 -11 12 -22 43 -25 73 -11 99 -83 217 -152 250
-33 16 -33 16 -40 107 -3 50 -7 227 -8 393 -2 280 -4 303 -21 322 -27 29 -62
27 -83 -6z m45 -797 c-4 -5 -9 -8 -11 -5 -1 2 0 135 3 294 l5 290 5 -285 c3
-157 2 -289 -2 -294z m63 -105 c58 -37 85 -72 104 -134 17 -59 19 -87 5 -87
-5 0 -10 7 -10 15 0 26 -31 109 -53 142 -12 18 -39 40 -59 49 -40 18 -63 12
-35 -9 18 -13 34 -100 29 -159 l-3 -38 -120 0 -121 0 7 43 c14 86 53 146 120
188 42 27 84 24 136 -10z m-35 -301 c33 -5 91 -11 127 -12 53 -1 67 -5 67 -17
0 -13 -15 -16 -84 -17 -46 0 -90 -5 -98 -10 -14 -11 -173 -10 -245 1 -37 5
-43 10 -43 30 0 20 6 24 38 28 76 8 179 7 238 -3z m197 -137 c3 -10 -353 -25
-420 -17 -39 4 -53 10 -53 21 0 14 27 15 235 9 129 -3 236 -9 238 -13z m-385
-553 c3 -446 2 -450 -18 -450 -20 0 -20 5 -20 414 0 428 4 516 24 496 8 -8 12
-149 14 -460z m168 423 c4 -25 3 -112 -2 -192 -5 -80 -7 -267 -5 -414 l3 -268
-58 3 -59 3 -5 105 c-3 58 -3 261 -2 452 l4 347 41 4 c23 2 50 4 59 5 13 2 18
-9 24 -45z m169 -602 c0 -203 -3 -265 -12 -268 -10 -4 -13 88 -13 435 0 242 3
449 8 459 9 22 17 -273 17 -626z m-102 175 c2 -391 0 -446 -13 -446 -13 0 -15
54 -12 437 2 409 4 474 18 461 2 -3 6 -206 7 -452z m133 -536 c7 -7 14 -20 13
-29 0 -10 -2 -11 -6 -3 -6 16 -46 15 -113 -4 -36 -10 -107 -17 -207 -18 l-153
-3 0 28 c0 16 8 33 18 39 24 16 428 6 448 -10z m24 -69 c0 -11 -4 -23 -10 -26
-6 -4 -10 5 -10 19 0 14 5 26 10 26 6 0 10 -9 10 -19z m-107 -40 c64 -1 97 -5
97 -12 0 -12 -425 -3 -445 9 -15 10 142 18 200 10 28 -3 94 -7 148 -7z m-145
-93 c6 -6 12 -28 12 -49 0 -50 16 -51 25 -2 6 32 8 35 17 19 14 -26 -5 -64
-37 -72 -14 -3 -46 0 -70 9 -25 8 -45 13 -45 11 0 -2 26 -18 57 -36 31 -17 51
-34 45 -36 -17 -5 -82 17 -114 40 -28 19 -64 98 -56 120 6 16 146 12 166 -4z
m171 -74 c-26 -43 -94 -94 -123 -93 -19 0 -19 1 3 10 14 5 44 26 68 45 33 27
47 47 56 82 10 40 12 43 15 19 2 -16 -6 -43 -19 -63z"/>
<path d="M3530 6100 c0 -12 4 -19 9 -16 5 4 12 0 14 -6 4 -10 6 -10 6 0 1 7
-6 20 -14 28 -13 14 -15 13 -15 -6z"/>
<path d="M3525 6016 c-18 -13 -18 -14 8 -9 15 3 27 9 27 14 0 13 -13 11 -35
-5z"/>
<path d="M3486 5643 c5 -5 12 -12 16 -18 4 -6 8 -2 8 8 0 9 -7 17 -17 17 -9 0
-12 -3 -7 -7z"/>
<path d="M2692 4941 c-8 -4 -12 -19 -10 -32 3 -22 8 -24 62 -27 63 -3 96 14
96 50 0 16 -9 18 -67 18 -38 0 -74 -4 -81 -9z"/>
<path d="M7420 4060 l-45 -18 0 -196 c0 -124 4 -196 10 -196 27 1 94 41 123
74 l32 37 0 143 c0 126 -2 145 -18 159 -23 21 -44 20 -102 -3z"/>
<path d="M2460 3848 l5 -163 58 -9 c49 -7 61 -6 77 9 17 16 20 31 20 122 0
124 -10 145 -85 179 -84 40 -81 46 -75 -138z"/>
<path d="M2451 3405 l4 -154 45 -17 c110 -40 129 -21 129 127 0 91 -1 97 -30
132 -21 26 -45 41 -81 52 -29 8 -56 15 -61 15 -5 0 -8 -65 -6 -155z"/>
<path d="M6867 3878 l-37 -33 -7 -167 c-6 -153 -4 -170 12 -188 16 -18 17 -22
1 -54 -12 -26 -16 -64 -16 -158 0 -172 22 -198 117 -143 l43 26 0 163 c0 136
-3 165 -15 170 -23 8 -19 53 5 59 19 5 20 14 20 169 0 114 -4 168 -12 176 -23
23 -73 14 -111 -20z"/>
<path d="M3027 3813 c-3 -10 -7 -101 -9 -203 l-3 -185 25 -11 c14 -7 42 -15
63 -18 l37 -7 0 195 c0 188 -1 196 -22 216 -12 11 -30 20 -39 20 -10 0 -24 3
-32 6 -9 3 -17 -2 -20 -13z"/>
<path d="M3548 3520 l3 -180 52 0 c40 0 59 6 82 24 l30 24 -3 124 c-2 119 -3
124 -28 144 -27 22 -87 44 -120 44 -18 0 -19 -9 -16 -180z"/>
<path d="M2093 3778 c-30 -39 -15 -73 29 -66 30 4 38 46 12 65 -22 16 -29 16
-41 1z"/>
<path d="M7816 3752 c-14 -44 26 -71 55 -36 9 11 10 20 2 32 -15 25 -50 27
-57 4z"/>
<path d="M4100 3449 l0 -169 28 0 c48 0 101 20 122 47 16 20 20 40 20 92 0
142 -21 174 -120 190 l-50 8 0 -168z"/>
<path d="M4100 2996 l0 -163 38 -7 c69 -11 90 -7 112 21 19 24 20 37 18 147
l-3 120 -34 23 c-24 16 -48 23 -82 23 l-49 0 0 -164z"/>
<path d="M5173 3533 l-33 -4 0 -175 0 -174 35 0 c47 0 98 22 119 51 21 30 24
270 4 287 -16 12 -83 21 -125 15z"/>
<path d="M1865 2228 c-15 -23 -15 -23 21 -26 38 -3 56 10 47 35 -8 21 -50 15
-68 -9z"/>
<path d="M2089 2224 c-18 -22 6 -35 51 -28 41 7 55 18 46 33 -11 17 -82 13
-97 -5z"/>
<path d="M2090 2127 c0 -38 46 -50 75 -21 20 20 11 30 -37 38 -35 6 -38 5 -38
-17z"/>
<path d="M2340 2225 c-26 -31 24 -49 54 -19 9 8 14 20 11 25 -9 14 -51 11 -65
-6z"/>
<path d="M2330 2137 c0 -16 26 -47 40 -47 12 0 56 38 50 44 -3 3 -25 8 -48 12
-34 5 -42 4 -42 -9z"/>
<path d="M7560 2235 c-16 -19 -6 -45 18 -45 25 0 46 25 38 45 -7 19 -40 19
-56 0z"/>
<path d="M7550 2121 c0 -11 5 -23 10 -26 19 -12 68 6 73 26 5 17 0 19 -39 19
-37 0 -44 -3 -44 -19z"/>
<path d="M7799 2229 c-27 -27 -12 -45 28 -32 35 12 46 53 14 53 -12 0 -30 -9
-42 -21z"/>
<path d="M7786 2124 c-9 -24 -9 -24 34 -24 33 0 40 3 40 20 0 16 -7 20 -34 20
-22 0 -36 -6 -40 -16z"/>
<path d="M8033 2224 c-8 -21 10 -36 38 -32 16 2 25 11 27 26 3 19 -1 22 -28
22 -19 0 -33 -6 -37 -16z"/>
<path d="M8037 2144 c-4 -4 -7 -16 -7 -26 0 -14 8 -18 33 -18 39 0 59 11 48
28 -9 14 -63 26 -74 16z"/>
<path d="M4937 2068 c-3 -10 -14 -18 -25 -18 -15 0 -22 -8 -24 -27 -3 -26 -7
-28 -51 -31 -44 -3 -47 -5 -42 -25 4 -12 22 -36 41 -52 33 -29 34 -32 23 -63
-6 -18 -8 -39 -5 -47 7 -20 55 -19 77 1 16 14 23 15 47 5 16 -7 47 -11 68 -9
45 4 56 28 28 59 -16 18 -16 19 3 19 24 0 47 24 63 64 13 36 -1 56 -39 56 -15
0 -36 6 -47 14 -16 13 -17 18 -6 35 19 33 15 36 -47 37 -50 1 -60 -2 -64 -18z"/>
</g>
</svg>
